{
    "asset": {
        "version": "2.0",
        "generator": "Open Asset Import Library (assimp v5.4.0)"
    },
    "extensionsUsed": [
        "KHR_materials_specular",
        "KHR_materials_volume",
        "FB_ngon_encoding"
    ],
    "accessors": [
        {
            "bufferView": 0,
            "byteOffset": 0,
            "componentType": 5126,
            "count": 21190,
            "type": "VEC3",
            "max": [
                0.40847232937812805,
                0.4995313584804535,
                0.38261380791664124
            ],
            "min": [
                -0.40777772665023804,
                -0.49900808930397034,
                -0.3846915364265442
            ]
        },
        {
            "bufferView": 1,
            "byteOffset": 0,
            "componentType": 5126,
            "count": 21190,
            "type": "VEC3",
            "max": [
                0.9999996423721313,
                0.9999876022338867,
                0.9999940991401672
            ],
            "min": [
                -0.9999953508377075,
                -0.9998884201049805,
                -0.9999985694885254
            ]
        },
        {
            "bufferView": 2,
            "byteOffset": 0,
            "componentType": 5126,
            "count": 21190,
            "type": "VEC2",
            "max": [
                0.9965683221817017,
                0.9988420605659485
            ],
            "min": [
                0.0012313578044995666,
                0.0011406540870666504
            ]
        },
        {
            "bufferView": 3,
            "byteOffset": 0,
            "componentType": 5125,
            "count": 94983,
            "type": "SCALAR",
            "max": [
                21189
            ],
            "min": [
                0
            ]
        }
    ],
    "buffers": [
        {
            "byteLength": 1058012,
            "uri": "f862b0a5-9064-4ba8-95a7-37a14610c74b.bin"
        }
    ],
    "bufferViews": [
        {
            "buffer": 0,
            "byteOffset": 0,
            "byteLength": 254280,
            "target": 34962
        },
        {
            "buffer": 0,
            "byteOffset": 254280,
            "byteLength": 254280,
            "target": 34962
        },
        {
            "buffer": 0,
            "byteOffset": 508560,
            "byteLength": 169520,
            "target": 34962
        },
        {
            "buffer": 0,
            "byteOffset": 678080,
            "byteLength": 379932,
            "target": 34963
        }
    ],
    "images": [
        {
            "name": "tripo_convert_01146f91-7290-4e45-8291-f46792eea6d7.fbm/Color.jpg",
            "uri": "data:image/jpeg;base64,"
        },
        {
            "name": "tripo_convert_01146f91-7290-4e45-8291-f46792eea6d7.fbm/ancientbronzeding3dmodel_metallic.JPEG",
            "uri": "data:image/jpeg;base64,"
        },
        {
            "name": "tripo_convert_01146f91-7290-4e45-8291-f46792eea6d7.fbm/Normal.jpg",
            "uri": "data:image/jpeg;base64,"
        }
    ],
    "materials": [
        {
            "name": "tripo_mat_01146f91",
            "pbrMetallicRoughness": {
                "baseColorTexture": {
                    "index": 0
                },
                "metallicRoughnessTexture": {
                    "index": 1
                },
                "baseColorFactor": [
                    0.800000011920929,
                    0.800000011920929,
                    0.800000011920929,
                    1.0
                ],
                "metallicFactor": 0.0,
                "roughnessFactor": 0.5527864098548889
            },
            "normalTexture": {
                "index": 2
            },
            "extensions": {
                "KHR_materials_specular": {
                    "specularFactor": 1.0,
                    "specularColorFactor": [
                        0.800000011920929,
                        0.800000011920929,
                        0.800000011920929
                    ]
                }
            }
        }
    ],
    "meshes": [
        {
            "name": "tripo_mesh_01146f91",
            "primitives": [
                {
                    "extensions": {
                        "FB_ngon_encoding": {}
                    },
                    "mode": 4,
                    "material": 0,
                    "indices": 3,
                    "attributes": {
                        "POSITION": 0,
                        "NORMAL": 1,
                        "TEXCOORD_0": 2
                    }
                }
            ]
        }
    ],
    "nodes": [
        {
            "name": "RootNode",
            "children": [
                1
            ]
        },
        {
            "name": "tripo_node_01146f91",
            "matrix": [
                1.0,
                0.0,
                0.0,
                0.0,
                0.0,
                -4.371138828673793e-8,
                -1.0,
                0.0,
                0.0,
                1.0,
                -4.371138828673793e-8,
                0.0,
                0.0,
                0.0,
                0.0,
                1.0
            ],
            "mesh": 0,
            "extras": {
                "UserProperties": "",
                "IsNull": false,
                "DefaultAttributeIndex": 0,
                "InheritType": 1
            }
        }
    ],
    "samplers": [
        {},
        {},
        {}
    ],
    "scenes": [
        {
            "nodes": [
                0
            ]
        }
    ],
    "textures": [
        {
            "source": 0,
            "sampler": 0
        },
        {
            "source": 1,
            "sampler": 1
        },
        {
            "source": 2,
            "sampler": 2
        }
    ],
    "scene": 0
}